<svg width="26" height="24" viewBox="0 0 26 24" fill="none" xmlns="http://www.w3.org/2000/svg">
<path d="M24.5356 0.118286L14.5146 7.53559L16.3776 3.15352L24.5356 0.118286Z" fill="#E17726"/>
<path d="M14.505 7.6917C14.4761 7.69913 14.4457 7.69913 14.4168 7.6917C14.3883 7.67356 14.3676 7.6456 14.3585 7.61319C14.3495 7.58077 14.3528 7.54617 14.3678 7.51602L16.2307 3.13396C16.2387 3.11523 16.2507 3.0985 16.266 3.085C16.2813 3.07149 16.2994 3.06154 16.319 3.05588L24.4769 0.0108746C24.511 -0.00295933 24.549 -0.00361569 24.5834 0.00902795C24.6179 0.0216716 24.6464 0.0467065 24.6632 0.079199C24.6855 0.106895 24.6977 0.141322 24.6977 0.176801C24.6977 0.21228 24.6855 0.246692 24.6632 0.274388L14.6423 7.6917C14.6218 7.70473 14.598 7.71165 14.5737 7.71165C14.5493 7.71165 14.5255 7.70473 14.505 7.6917ZM16.4661 3.2706L14.8482 7.07684L23.5553 0.635489L16.4661 3.2706Z" fill="#E17726"/>
<path d="M1.36621 0.118286L11.3283 7.59415L9.56339 3.15352L1.36621 0.118286Z" fill="#E27625"/>
<path d="M11.3279 7.77953C11.2991 7.78794 11.2685 7.78794 11.2397 7.77953L1.27758 0.293917C1.2553 0.266221 1.24316 0.231794 1.24316 0.196315C1.24316 0.160836 1.2553 0.126424 1.27758 0.098728C1.28496 0.0817834 1.29573 0.0665012 1.30922 0.0538138C1.32271 0.0411264 1.33864 0.0312941 1.35605 0.0249084C1.37346 0.0185228 1.39199 0.0157131 1.41052 0.0166583C1.42906 0.0176035 1.44721 0.0222799 1.46388 0.0304036L9.65125 3.0754C9.67087 3.08106 9.68896 3.091 9.70423 3.10451C9.7195 3.11802 9.73155 3.13475 9.7395 3.15348L11.5142 7.5941C11.5238 7.62652 11.5243 7.66093 11.5157 7.69361C11.507 7.72629 11.4896 7.75601 11.4652 7.77953C11.4436 7.78924 11.4203 7.79425 11.3966 7.79425C11.3729 7.79425 11.3495 7.78924 11.3279 7.77953ZM2.29733 0.645264L10.9848 7.17444L9.44534 3.2706L2.29733 0.645264Z" fill="#E27625"/>
<path d="M20.9278 17.3049L18.2412 21.3747L23.9871 22.9557L25.6049 17.3928L20.9278 17.3049Z" fill="#E27625"/>
<path d="M23.9771 23.112L18.2313 21.5309C18.2085 21.5232 18.1878 21.5104 18.1708 21.4935C18.1538 21.4765 18.1409 21.456 18.1332 21.4333C18.122 21.4122 18.1162 21.3888 18.1162 21.365C18.1162 21.3412 18.122 21.3177 18.1332 21.2967L20.8198 17.2269C20.8326 17.2048 20.8513 17.1867 20.8738 17.1747C20.8963 17.1626 20.9218 17.157 20.9473 17.1586L25.6244 17.2464C25.647 17.2477 25.6691 17.2536 25.6893 17.2637C25.7095 17.2737 25.7275 17.2878 25.7421 17.305C25.7518 17.3264 25.7569 17.3497 25.7569 17.3733C25.7569 17.3969 25.7518 17.4201 25.7421 17.4416L24.1144 23.0046C24.1048 23.034 24.0866 23.0599 24.0621 23.079C24.0377 23.0981 24.0081 23.1096 23.9771 23.112ZM18.4764 21.2869L23.8791 22.7704L25.3989 17.5392L21.0061 17.4514L18.4764 21.2869Z" fill="#E27625"/>
<path d="M0.327148 17.3928L1.95482 22.9557L7.66146 21.3747L5.00424 17.3049L0.327148 17.3928Z" fill="#E27625"/>
<path d="M1.94477 23.1119C1.91125 23.1095 1.87925 23.0969 1.85301 23.076C1.82676 23.0551 1.80747 23.0268 1.79768 22.9948L0.179821 17.4318C0.170075 17.4104 0.165039 17.3871 0.165039 17.3635C0.165039 17.34 0.170075 17.3167 0.179821 17.2952C0.194417 17.278 0.212377 17.2639 0.232606 17.2539C0.252834 17.2438 0.274901 17.238 0.297479 17.2367L4.97458 17.1488C5.00011 17.1473 5.02558 17.1528 5.0481 17.1649C5.07062 17.177 5.08931 17.195 5.10205 17.2171L7.75926 21.2869C7.77042 21.3079 7.77626 21.3314 7.77626 21.3552C7.77626 21.379 7.77042 21.4025 7.75926 21.4235C7.75056 21.4473 7.7362 21.4685 7.71741 21.4855C7.69863 21.5025 7.67597 21.5148 7.6514 21.5211L1.94477 23.1022V23.1119ZM0.53281 17.5392L2.05262 22.7703L7.42589 21.2869L4.92555 17.4514L0.53281 17.5392Z" fill="#E27625"/>
<path d="M7.357 10.4244L5.76855 12.8253L11.4262 13.0693L11.2399 6.98901L7.357 10.4244Z" fill="#E27625"/>
<path d="M11.4264 13.2254L5.76882 12.9814C5.74201 12.9781 5.71641 12.9684 5.6942 12.9531C5.672 12.9378 5.65385 12.9174 5.64134 12.8935C5.62933 12.871 5.62305 12.8459 5.62305 12.8203C5.62305 12.7948 5.62933 12.7697 5.64134 12.7471L7.2298 10.3365L11.1519 6.90114C11.1764 6.88436 11.2055 6.87537 11.2352 6.87537C11.265 6.87537 11.2941 6.88436 11.3186 6.90114C11.3453 6.90969 11.3684 6.92676 11.3843 6.94969C11.4003 6.97263 11.4082 7.00015 11.4068 7.02801L11.5931 13.118C11.5943 13.1385 11.5904 13.159 11.5819 13.1777C11.5734 13.1964 11.5604 13.2128 11.5441 13.2254C11.5262 13.2356 11.5059 13.241 11.4853 13.241C11.4646 13.241 11.4443 13.2356 11.4264 13.2254ZM6.04336 12.6886L11.2598 12.9131L11.0931 7.3208L7.47493 10.522L6.04336 12.6886Z" fill="#E27625"/>
<path d="M18.574 10.4244L14.6323 6.93042L14.5146 13.0692L20.1625 12.8252L18.574 10.4244Z" fill="#E27625"/>
<path d="M14.5048 13.2255C14.4638 13.2238 14.4251 13.2063 14.397 13.1767C14.3833 13.1422 14.3833 13.1038 14.397 13.0693L14.5146 6.92074C14.5162 6.89104 14.5263 6.8624 14.5436 6.83819C14.561 6.81399 14.585 6.79522 14.6127 6.78411C14.6365 6.7704 14.6636 6.76318 14.6911 6.76318C14.7187 6.76318 14.7457 6.7704 14.7696 6.78411L18.6917 10.278L20.2801 12.6887C20.2921 12.7112 20.2984 12.7363 20.2984 12.7619C20.2984 12.7874 20.2921 12.8125 20.2801 12.8351C20.2676 12.8589 20.2494 12.8793 20.2272 12.8946C20.205 12.9099 20.1794 12.9196 20.1526 12.9229L14.495 13.1669L14.5048 13.2255ZM14.7794 7.26233L14.6617 12.9131L19.8879 12.6887L18.4563 10.522L14.7794 7.26233Z" fill="#E27625"/>
<path d="M7.66113 21.3746L11.0832 19.735L8.12198 17.422L7.66113 21.3746Z" fill="#E27625"/>
<path d="M7.66088 21.5308C7.63207 21.5392 7.60143 21.5392 7.57262 21.5308C7.55138 21.5132 7.53489 21.4906 7.52462 21.465C7.51435 21.4394 7.51063 21.4118 7.51379 21.3844L7.96484 17.4806C7.97062 17.4535 7.98243 17.428 7.9994 17.406C8.01637 17.3841 8.03805 17.3662 8.06288 17.3537C8.08673 17.34 8.11378 17.3328 8.14132 17.3328C8.16886 17.3328 8.19592 17.34 8.21977 17.3537L11.1613 19.657C11.1983 19.693 11.2194 19.7421 11.2202 19.7936C11.2161 19.82 11.2061 19.8452 11.1908 19.8672C11.1755 19.8892 11.1554 19.9074 11.1319 19.9205L7.70989 21.5601L7.66088 21.5308ZM8.23938 17.705L7.84716 21.1209L10.7887 19.7058L8.23938 17.705Z" fill="#E27625"/>
<path d="M14.8486 19.735L18.2412 21.3746L17.7804 17.422L14.8486 19.735Z" fill="#E27625"/>
<path d="M18.2409 21.5308H18.1723L14.7796 19.8912C14.7562 19.8781 14.7361 19.8599 14.7208 19.8379C14.7055 19.8159 14.6954 19.7907 14.6914 19.7643C14.6921 19.7128 14.7133 19.6637 14.7502 19.6277L17.6918 17.3244C17.7157 17.3107 17.7427 17.3035 17.7702 17.3035C17.7978 17.3035 17.8248 17.3107 17.8487 17.3244C17.8738 17.3353 17.8954 17.3529 17.911 17.3753C17.9266 17.3977 17.9356 17.424 17.9369 17.4513L18.3978 21.3551C18.4009 21.3825 18.3972 21.4102 18.387 21.4357C18.3767 21.4613 18.3602 21.4839 18.339 21.5015C18.3105 21.5219 18.2759 21.5322 18.2409 21.5308ZM15.1326 19.7057L18.0742 21.1209L17.682 17.705L15.1326 19.7057Z" fill="#E27625"/>
<path d="M18.2412 21.3747L14.8486 19.7351L15.1232 21.9213L15.0938 22.8679L18.2412 21.3747Z" fill="#D5BFB2"/>
<path d="M15.0932 23.0143H15.0049C14.982 23 14.9634 22.9797 14.9513 22.9556C14.9392 22.9315 14.934 22.9045 14.9363 22.8776V21.9017L14.6618 19.735C14.6575 19.7066 14.6618 19.6776 14.674 19.6516C14.6862 19.6255 14.7058 19.6037 14.7304 19.5886C14.7524 19.5748 14.7779 19.5674 14.8039 19.5674C14.83 19.5674 14.8555 19.5748 14.8775 19.5886L18.2701 21.2283C18.2967 21.2398 18.3193 21.259 18.335 21.2833C18.3507 21.3076 18.3588 21.336 18.3583 21.3649C18.3588 21.3938 18.3507 21.4222 18.335 21.4465C18.3193 21.4708 18.2967 21.49 18.2701 21.5015L15.1226 22.9947L15.0932 23.0143ZM15.0343 19.9888L15.2697 21.9407V22.6629L17.9073 21.4137L15.0343 19.9888Z" fill="#D5BFB2"/>
<path d="M7.66113 21.3747L10.8478 22.8679L10.8086 21.9213L11.0832 19.7351L7.66113 21.3747Z" fill="#D5BFB2"/>
<path d="M10.8379 23.0143H10.7791L7.60221 21.5211C7.57475 21.5107 7.55136 21.4919 7.53548 21.4673C7.51959 21.4427 7.51205 21.4137 7.51396 21.3845C7.51371 21.3568 7.52084 21.3296 7.53463 21.3056C7.54841 21.2816 7.56835 21.2617 7.59241 21.2479L11.0144 19.6082C11.0379 19.5935 11.0651 19.5857 11.0929 19.5857C11.1206 19.5857 11.1478 19.5935 11.1713 19.6082C11.1943 19.6248 11.2127 19.6469 11.2247 19.6726C11.2368 19.6982 11.242 19.7264 11.24 19.7546L10.9654 21.9408V22.8582C10.9658 22.8848 10.9598 22.9111 10.9478 22.9348C10.9359 22.9586 10.9184 22.9792 10.8968 22.9948L10.8379 23.0143ZM8.01402 21.3747L10.681 22.624V21.931L10.9164 19.9791L8.01402 21.3747Z" fill="#D5BFB2"/>
<path d="M10.907 15.958L8.06348 15.1382L10.0539 14.2306L10.907 15.958Z" fill="#233447"/>
<path d="M10.9066 16.1143L8.06305 15.2945C8.0335 15.2849 8.00747 15.2668 7.98827 15.2425C7.96907 15.2181 7.95755 15.1887 7.95519 15.1578C7.95404 15.1275 7.96177 15.0976 7.97744 15.0716C7.99311 15.0456 8.01605 15.0247 8.04345 15.0115L10.0045 14.094C10.0225 14.086 10.0419 14.0817 10.0616 14.0813C10.0813 14.0809 10.1009 14.0845 10.1191 14.0918C10.1374 14.099 10.1541 14.1099 10.1681 14.1237C10.182 14.1375 10.1931 14.154 10.2006 14.1721L11.0634 15.8996C11.0781 15.9248 11.0858 15.9534 11.0858 15.9825C11.0858 16.0117 11.0781 16.0403 11.0634 16.0655C11.0461 16.0894 11.0214 16.107 10.9932 16.1158C10.9649 16.1246 10.9345 16.1241 10.9066 16.1143ZM8.49448 15.1383L10.6124 15.7434L9.97507 14.4551L8.49448 15.1383Z" fill="#233447"/>
<path d="M15.0352 15.958L15.8588 14.2306L17.8689 15.1382L15.0352 15.958Z" fill="#233447"/>
<path d="M15.0251 16.1142C15.0024 16.1135 14.9801 16.1079 14.9598 16.0978C14.9395 16.0877 14.9216 16.0733 14.9074 16.0557C14.8926 16.0323 14.8848 16.0052 14.8848 15.9776C14.8848 15.95 14.8926 15.9229 14.9074 15.8995L15.7311 14.1623C15.75 14.1266 15.7813 14.099 15.8192 14.0846C15.8571 14.0702 15.899 14.0701 15.937 14.0843L17.9569 15.0016C17.9843 15.0149 18.0072 15.0358 18.0229 15.0618C18.0385 15.0878 18.0463 15.1178 18.0451 15.1481C18.042 15.1801 18.0291 15.2105 18.008 15.2349C17.987 15.2594 17.9588 15.2768 17.9274 15.2847L15.0937 16.1045L15.0251 16.1142ZM15.9272 14.4258L15.3094 15.7239L17.4274 15.109L15.9272 14.4258Z" fill="#233447"/>
<path d="M7.66112 21.3747L8.15139 17.3049L5.00391 17.3928L7.66112 21.3747Z" fill="#CC6228"/>
<path d="M7.66139 21.5309C7.63635 21.5298 7.61189 21.523 7.58982 21.5112C7.56775 21.4994 7.54864 21.4828 7.53392 21.4626L4.8767 17.4709C4.86468 17.4483 4.8584 17.4232 4.8584 17.3977C4.8584 17.3722 4.86468 17.347 4.8767 17.3245C4.89009 17.2994 4.90977 17.2781 4.9338 17.2627C4.95784 17.2473 4.98544 17.2383 5.01397 17.2366L8.16146 17.1488C8.1837 17.1448 8.20663 17.1473 8.2275 17.156C8.24836 17.1646 8.26628 17.1791 8.27911 17.1976C8.29342 17.2353 8.29342 17.277 8.27911 17.3147L7.78885 21.3942C7.78395 21.4246 7.77018 21.4528 7.74925 21.4753C7.72832 21.4979 7.70117 21.5138 7.67119 21.5211L7.66139 21.5309ZM5.28851 17.5294L7.56334 20.9453L7.97515 17.4514L5.28851 17.5294Z" fill="#CC6228"/>
<path d="M17.7803 17.3049L18.2411 21.3747L20.9278 17.3928L17.7803 17.3049Z" fill="#CC6228"/>
<path d="M18.2406 21.5308C18.21 21.5248 18.1821 21.5093 18.161 21.4865C18.1398 21.4637 18.1265 21.4348 18.1229 21.404L17.6621 17.3244C17.6478 17.2867 17.6478 17.2451 17.6621 17.2073C17.6768 17.1909 17.695 17.178 17.7153 17.1696C17.7357 17.1611 17.7577 17.1574 17.7798 17.1585L20.9272 17.2464C20.9558 17.2481 20.9834 17.257 21.0074 17.2724C21.0314 17.2878 21.0511 17.3091 21.0645 17.3342C21.0765 17.3567 21.0828 17.3819 21.0828 17.4074C21.0828 17.4329 21.0765 17.4581 21.0645 17.4806L18.3779 21.443C18.3674 21.4703 18.3485 21.4936 18.3238 21.5094C18.2991 21.5252 18.2699 21.5327 18.2406 21.5308ZM17.9464 17.4513L18.3387 20.9453L20.6429 17.5294L17.9464 17.4513Z" fill="#CC6228"/>
<path d="M20.1625 12.8252L14.5146 13.0692L15.0343 15.958L15.858 14.2306L17.868 15.1382L20.1625 12.8252Z" fill="#CC6228"/>
<path d="M15.025 16.1142C14.9932 16.1087 14.9639 16.0935 14.9411 16.0708C14.9183 16.0481 14.903 16.019 14.8975 15.9874L14.3778 13.0595C14.3682 13.0397 14.3633 13.018 14.3633 12.996C14.3633 12.9741 14.3682 12.9524 14.3778 12.9326C14.4157 12.9184 14.4576 12.9184 14.4955 12.9326L20.1433 12.6886C20.174 12.6861 20.2046 12.6932 20.231 12.709C20.2574 12.7247 20.2782 12.7483 20.2904 12.7764C20.3072 12.8008 20.3163 12.8298 20.3163 12.8594C20.3163 12.889 20.3072 12.9179 20.2904 12.9423L17.9959 15.2554C17.972 15.2736 17.9427 15.2834 17.9126 15.2834C17.8825 15.2834 17.8532 15.2736 17.8293 15.2554L15.9467 14.4063L15.1818 16.0069C15.1711 16.0394 15.15 16.0675 15.1216 16.0869C15.0933 16.1063 15.0593 16.1159 15.025 16.1142ZM14.6916 13.1863L15.0936 15.4408L15.7113 14.133C15.7302 14.0973 15.7616 14.0697 15.7995 14.0553C15.8374 14.0409 15.8792 14.0408 15.9172 14.0549L17.8783 14.9236L19.8393 12.9716L14.6916 13.1863Z" fill="#CC6228"/>
<path d="M8.06298 15.1382L10.0534 14.2306L10.9065 15.958L11.4262 13.0692L5.76855 12.8252L8.06298 15.1382Z" fill="#CC6228"/>
<path d="M10.9068 16.1143C10.878 16.1136 10.85 16.105 10.8258 16.0895C10.8016 16.074 10.7821 16.0522 10.7695 16.0264L9.97531 14.4258L8.12212 15.2749C8.09819 15.2931 8.06891 15.303 8.03879 15.303C8.00866 15.303 7.97937 15.2931 7.95544 15.2749L5.66102 12.9619C5.64273 12.9381 5.63281 12.9089 5.63281 12.879C5.63281 12.849 5.64273 12.8198 5.66102 12.796C5.67016 12.7658 5.6903 12.74 5.7175 12.7238C5.74469 12.7075 5.77699 12.702 5.80809 12.7082L11.4559 12.9521C11.4938 12.9379 11.5357 12.9379 11.5736 12.9521C11.5831 12.9719 11.5881 12.9936 11.5881 13.0156C11.5881 13.0376 11.5831 13.0592 11.5736 13.079L11.0539 16.0069C11.0483 16.0385 11.0331 16.0677 11.0103 16.0904C10.9875 16.1131 10.9582 16.1282 10.9264 16.1338L10.9068 16.1143ZM10.044 14.0745C10.0733 14.0726 10.1024 14.0801 10.1271 14.0959C10.1518 14.1117 10.1708 14.135 10.1812 14.1623L10.8382 15.4799L11.2402 13.2157L6.15128 13.0009L8.11232 14.9529L10.0047 14.0843L10.044 14.0745Z" fill="#CC6228"/>
<path d="M5.76855 12.8252L8.12181 17.422L8.06298 15.1382L5.76855 12.8252Z" fill="#E27525"/>
<path d="M8.12181 17.5392C8.09403 17.5394 8.06669 17.5323 8.04257 17.5186C8.01845 17.5049 7.99842 17.485 7.98454 17.4611L5.63129 12.8643C5.61568 12.8327 5.61205 12.7966 5.62105 12.7625C5.63006 12.7285 5.6511 12.6988 5.68032 12.6789C5.70728 12.6549 5.74218 12.6416 5.77836 12.6416C5.81454 12.6416 5.84945 12.6549 5.87642 12.6789L8.17084 14.9919C8.1845 15.0264 8.1845 15.0648 8.17084 15.0993L8.23948 17.3733C8.24061 17.4087 8.22957 17.4435 8.20818 17.4719C8.1868 17.5003 8.15633 17.5206 8.12181 17.5294V17.5392ZM6.35688 13.6353L7.95512 16.7486L7.90611 15.2066L6.35688 13.6353Z" fill="#E27525"/>
<path d="M17.8685 15.1382L17.7803 17.422L20.1629 12.8252L17.8685 15.1382Z" fill="#E27525"/>
<path d="M17.7798 17.5392C17.7453 17.5303 17.7149 17.51 17.6935 17.4816C17.6721 17.4533 17.6611 17.4185 17.6622 17.383L17.7602 15.0993C17.7482 15.0678 17.7482 15.0331 17.7602 15.0017L20.0547 12.6886C20.0816 12.6646 20.1165 12.6514 20.1527 12.6514C20.1889 12.6514 20.2238 12.6646 20.2508 12.6886C20.2785 12.7097 20.2984 12.7394 20.3072 12.773C20.3161 12.8066 20.3135 12.8421 20.2998 12.8741L17.9171 17.4708C17.902 17.493 17.8815 17.5109 17.8575 17.5229C17.8334 17.5348 17.8067 17.5404 17.7798 17.5392ZM18.0152 15.1773L17.9563 16.7096L19.5644 13.6158L18.0152 15.1773Z" fill="#E27525"/>
<path d="M11.4259 13.0692L10.9062 15.9581L11.5436 19.3934L11.7005 14.865L11.4259 13.0692Z" fill="#E27525"/>
<path d="M11.5149 19.5496C11.4791 19.5499 11.4444 19.5372 11.4173 19.5139C11.3902 19.4905 11.3726 19.4581 11.3679 19.4227L10.7207 15.9874V15.9288L11.2404 13.0009C11.252 12.9681 11.273 12.9395 11.301 12.9187C11.3289 12.8978 11.3624 12.8857 11.3973 12.8838C11.4331 12.8835 11.4678 12.8962 11.4949 12.9196C11.522 12.9429 11.5396 12.9753 11.5443 13.0107L11.8189 14.8064L11.6718 19.3642C11.6676 19.4016 11.6507 19.4364 11.624 19.463C11.5973 19.4896 11.5623 19.5064 11.5247 19.5106L11.5149 19.5496ZM11.0247 15.9581L11.4071 17.9978L11.5149 14.865L11.3777 13.9964L11.0247 15.9581Z" fill="#E27525"/>
<path d="M14.5148 13.0692L14.2305 14.865L14.3579 19.3934L15.0345 15.9581L14.5148 13.0692Z" fill="#E27525"/>
<path d="M14.3584 19.5497C14.322 19.5452 14.2882 19.528 14.2631 19.5013C14.2381 19.4745 14.2232 19.4398 14.2212 19.4033L14.1035 14.8651L14.3781 13.0498C14.3793 13.0318 14.3841 13.0143 14.3922 12.9982C14.4002 12.9821 14.4114 12.9677 14.4251 12.9559C14.4388 12.9441 14.4546 12.9351 14.4718 12.9295C14.489 12.9238 14.5071 12.9216 14.5251 12.9229C14.5612 12.9198 14.5971 12.93 14.626 12.9516C14.655 12.9732 14.6749 13.0047 14.682 13.04L15.2017 15.9679V16.0265L14.5251 19.4618C14.5121 19.4936 14.4883 19.5198 14.4578 19.5359C14.4273 19.5519 14.3922 19.5568 14.3584 19.5497ZM14.5251 13.9965L14.3879 14.8846L14.4663 18.0174L14.8683 15.9581L14.5251 13.9965Z" fill="#E27525"/>
<path d="M15.035 15.9581L14.3584 19.3935L14.8487 19.7351L17.7804 17.4221L17.8687 15.1383L15.035 15.9581Z" fill="#F5841F"/>
<path d="M14.8485 19.8815H14.7602L14.27 19.5399C14.2446 19.5233 14.2246 19.4997 14.2124 19.472C14.2002 19.4442 14.1964 19.4136 14.2013 19.3837L14.8779 15.9483C14.8837 15.921 14.8968 15.8957 14.9157 15.8751C14.9347 15.8545 14.9589 15.8394 14.9858 15.8312L17.8293 15.0114C17.8508 15.0017 17.8742 14.9967 17.8979 14.9967C17.9216 14.9967 17.945 15.0017 17.9666 15.0114C17.9856 15.0266 18.0008 15.0459 18.011 15.0679C18.0212 15.09 18.0261 15.1141 18.0254 15.1383L17.9273 17.4123C17.9282 17.4352 17.9232 17.4579 17.9129 17.4783C17.9027 17.4988 17.8874 17.5164 17.8685 17.5294L14.9269 19.8424L14.8485 19.8815ZM14.5249 19.3252L14.8387 19.5399L17.6332 17.344L17.7116 15.3433L15.1623 16.085L14.5249 19.3252Z" fill="#F5841F"/>
<path d="M8.06348 15.1383L8.12231 17.4221L11.0835 19.7351L11.5443 19.3935L10.907 15.9581L8.06348 15.1383Z" fill="#F5841F"/>
<path d="M11.083 19.8815C11.0544 19.8912 11.0234 19.8912 10.9948 19.8815L8.0532 17.5685C8.03593 17.5539 8.0218 17.5361 8.01169 17.5159C8.00157 17.4958 7.99569 17.4738 7.99438 17.4514L7.93555 15.1676C7.93625 15.145 7.94188 15.1228 7.95203 15.1026C7.96219 15.0824 7.97664 15.0646 7.99438 15.0505C8.01595 15.0408 8.03934 15.0358 8.063 15.0358C8.08667 15.0358 8.11008 15.0408 8.13165 15.0505L10.9752 15.8703C11.002 15.8784 11.0262 15.8936 11.0452 15.9142C11.0642 15.9348 11.0772 15.9601 11.083 15.9874L11.7204 19.4325C11.7245 19.46 11.7212 19.488 11.7109 19.5137C11.7005 19.5394 11.6835 19.5619 11.6615 19.5789L11.2007 19.9108C11.1801 19.9152 11.1588 19.9148 11.1384 19.9098C11.118 19.9047 11.0991 19.895 11.083 19.8815ZM8.26892 17.344L11.0928 19.5399L11.3772 19.3349L10.7693 16.085L8.21989 15.3433L8.26892 17.344Z" fill="#F5841F"/>
<path d="M15.0935 22.8679L15.1229 21.9212L14.8484 21.7065H11.0537L10.8086 21.9212L10.8478 22.8679L7.66113 21.3746L8.76912 22.292L11.0243 23.8341H14.8778L17.1428 22.292L18.241 21.3746L15.0935 22.8679Z" fill="#C0AC9D"/>
<path d="M14.8775 23.9902H11.0241H10.9358L8.68064 22.4384L7.56284 21.521C7.53872 21.4942 7.52539 21.4594 7.52539 21.4234C7.52539 21.3874 7.53872 21.3527 7.56284 21.3258C7.58148 21.2926 7.61237 21.268 7.64897 21.257C7.68558 21.2461 7.72502 21.2498 7.75894 21.2673L10.7005 22.6532V21.9602C10.6957 21.9366 10.6978 21.9122 10.7065 21.8897C10.7152 21.8672 10.7301 21.8477 10.7495 21.8333L10.9947 21.6284C11.0102 21.6219 11.0269 21.6186 11.0437 21.6186C11.0605 21.6186 11.0772 21.6219 11.0927 21.6284H14.8873C14.9162 21.62 14.9468 21.62 14.9756 21.6284L15.2501 21.8431C15.2692 21.8582 15.2844 21.8776 15.2946 21.8996C15.3048 21.9216 15.3097 21.9457 15.309 21.97V22.6629L18.2505 21.277C18.2849 21.2618 18.3235 21.2593 18.3595 21.2701C18.3955 21.2808 18.4264 21.3041 18.4467 21.3356C18.4708 21.3624 18.4841 21.3972 18.4841 21.4332C18.4841 21.4692 18.4708 21.5039 18.4467 21.5308L17.3387 22.4384L15.0737 24L14.8775 23.9902ZM11.0731 23.6877H14.8285L17.0445 22.1652L17.2112 22.0285L15.1521 23.0045C15.1294 23.0165 15.1042 23.0227 15.0785 23.0227C15.0529 23.0227 15.0277 23.0165 15.005 23.0045C14.982 22.9902 14.9635 22.9699 14.9514 22.9458C14.9393 22.9217 14.9341 22.8947 14.9364 22.8679V21.9993L14.7599 21.8724H11.0829L10.9358 21.9993V22.8679C10.9362 22.8944 10.9302 22.9207 10.9183 22.9445C10.9063 22.9683 10.8888 22.9889 10.8672 23.0045C10.8445 23.0165 10.8193 23.0227 10.7937 23.0227C10.768 23.0227 10.7428 23.0165 10.7201 23.0045L8.62181 22.0285L8.79829 22.1847L11.0731 23.6877Z" fill="#C0AC9D"/>
<path d="M14.8483 19.735L14.3581 19.3934H11.544L11.0831 19.735L10.8086 21.9212L11.0537 21.7065H14.8483L15.1229 21.9212L14.8483 19.735Z" fill="#161616"/>
<path d="M10.8085 22.0773H10.7399C10.7117 22.0631 10.6888 22.0403 10.6747 22.0122C10.6606 21.984 10.6559 21.9521 10.6614 21.9212L10.936 19.735C10.9374 19.7139 10.9434 19.6934 10.9536 19.6749C10.9637 19.6564 10.9778 19.6403 10.9948 19.6276L11.4557 19.2958C11.4843 19.2862 11.5153 19.2862 11.5439 19.2958H14.358C14.3868 19.2874 14.4174 19.2874 14.4463 19.2958L14.9267 19.6276C14.9473 19.6371 14.9648 19.6522 14.977 19.6712C14.9891 19.6903 14.9955 19.7124 14.9953 19.735L15.2699 21.9212C15.2754 21.9521 15.2707 21.984 15.2566 22.0122C15.2425 22.0403 15.2196 22.0631 15.1914 22.0773C15.1669 22.0941 15.1379 22.1031 15.1081 22.1031C15.0783 22.1031 15.0493 22.0941 15.0248 22.0773L14.7894 21.9016H11.1125L10.9066 22.0773C10.8748 22.0885 10.8402 22.0885 10.8085 22.0773ZM11.0536 21.56H14.8483C14.8738 21.5518 14.9012 21.5518 14.9267 21.56L14.7012 19.8033L14.309 19.53H11.5929L11.2301 19.7936L11.0144 21.5405L11.0536 21.56Z" fill="#161616"/>
<path d="M24.9578 8.02357L25.8207 3.91477L24.5362 0.118286L14.8486 7.2916L18.5746 10.4244L23.8302 11.9469L24.9872 10.6099L24.5068 10.239L25.301 9.51679L24.6833 9.02881L25.4775 8.41395L24.9578 8.02357Z" fill="#763E1A"/>
<path d="M23.8301 12.0934L18.5647 10.5709H18.5157L14.7897 7.43804C14.772 7.42392 14.7575 7.40614 14.7473 7.38592C14.7372 7.36569 14.7316 7.34352 14.7309 7.32093C14.729 7.29793 14.7336 7.27486 14.7439 7.25423C14.7543 7.23359 14.7701 7.21617 14.7897 7.20382L24.4773 0.0207437C24.4981 0.00875147 24.5218 0.00244141 24.5459 0.00244141C24.57 0.00244141 24.5937 0.00875147 24.6145 0.0207437C24.6386 0.025856 24.6607 0.0377814 24.6781 0.0550995C24.6955 0.0724175 24.7075 0.0943789 24.7126 0.118331L25.9971 3.91482C26.0013 3.94067 26.0013 3.96704 25.9971 3.9929L25.1538 8.0041L25.6049 8.34569C25.6221 8.36022 25.6363 8.37809 25.6464 8.39823C25.6565 8.41836 25.6624 8.44033 25.6637 8.4628C25.6605 8.51087 25.6395 8.55606 25.6049 8.58968L24.9577 9.07766L25.4186 9.43876C25.4374 9.45182 25.4527 9.46939 25.463 9.48985C25.4733 9.51032 25.4782 9.53302 25.4774 9.55589C25.4773 9.59985 25.4597 9.64196 25.4284 9.673L24.7714 10.2781L25.1146 10.5318C25.1434 10.5618 25.1637 10.5988 25.1734 10.6392C25.1877 10.6769 25.1877 10.7186 25.1734 10.7563L24.0164 12.0934C23.9901 12.1148 23.9572 12.1265 23.9233 12.1265C23.8893 12.1265 23.8564 12.1148 23.8301 12.0934ZM18.6432 10.2879L23.7811 11.7713L24.7616 10.6294L24.3988 10.3659C24.3799 10.3529 24.3647 10.3353 24.3544 10.3148C24.3441 10.2944 24.3392 10.2717 24.34 10.2488C24.3305 10.2307 24.3256 10.2106 24.3256 10.1903C24.3256 10.1699 24.3305 10.1498 24.34 10.1317L25.0067 9.51684L24.5263 9.14597C24.4959 9.11437 24.4784 9.07261 24.4773 9.02886C24.4765 9.00461 24.4814 8.98053 24.4916 8.95851C24.5018 8.93649 24.5171 8.91713 24.5361 8.90198L25.1734 8.414L24.8106 8.14073C24.7878 8.12446 24.7702 8.10204 24.7597 8.0761C24.7493 8.05016 24.7466 8.02179 24.7518 7.99434L25.5951 3.92459L24.3988 0.362321L15.0348 7.3014L18.6432 10.2879Z" fill="#763E1A"/>
<path d="M0.121094 3.91477L0.974149 8.02357L0.425056 8.41395L1.21928 9.02881L0.611355 9.51679L1.43499 10.239L0.915318 10.6099L2.07234 11.9469L7.35736 10.4244L11.0833 7.2916L1.36636 0.118286L0.121094 3.91477Z" fill="#763E1A"/>
<path d="M2.07206 12.0934C2.05389 12.1028 2.03372 12.1077 2.01323 12.1077C1.99275 12.1077 1.97257 12.1028 1.9544 12.0934L0.797394 10.7563C0.788673 10.738 0.784138 10.718 0.784138 10.6978C0.784138 10.6775 0.788673 10.6575 0.797394 10.6392C0.804946 10.5981 0.825566 10.5604 0.856223 10.5318L1.21901 10.2781L0.542449 9.673C0.524669 9.65948 0.510778 9.64154 0.502172 9.62098C0.493566 9.60042 0.490545 9.57797 0.49342 9.55589C0.494124 9.53329 0.49975 9.5111 0.509907 9.49088C0.520065 9.47066 0.534525 9.45288 0.552264 9.43876L1.0033 9.07766L0.365962 8.58968C0.34693 8.57453 0.331693 8.55517 0.321481 8.53315C0.311269 8.51113 0.306366 8.48704 0.307133 8.4628C0.306304 8.43994 0.311247 8.41723 0.321526 8.39677C0.331805 8.37631 0.347089 8.35875 0.365962 8.34569L0.836609 8.0041L0.00315802 3.9929C-0.00105267 3.96704 -0.00105267 3.94067 0.00315802 3.91482L1.24843 0.118331C1.25616 0.0956722 1.26904 0.0750894 1.28604 0.0581672C1.30304 0.041245 1.32372 0.028445 1.34649 0.0207437C1.36735 0.00875147 1.39102 0.00244141 1.41511 0.00244141C1.43921 0.00244141 1.46289 0.00875147 1.48376 0.0207437L11.2105 7.19405C11.2452 7.22766 11.2662 7.27286 11.2694 7.32093C11.2687 7.34352 11.263 7.36569 11.2529 7.38592C11.2427 7.40614 11.2283 7.42392 11.2105 7.43804L7.48455 10.5709H7.42573L2.14071 12.0934H2.07206ZM1.09154 10.6392L2.07206 11.7713L7.23942 10.2879L10.7889 7.3014L1.3955 0.362321L0.228689 3.92459L1.07194 7.99434C1.07853 8.0218 1.07642 8.05063 1.06588 8.07684C1.05535 8.10306 1.0369 8.12537 1.0131 8.14073L0.630692 8.42377L1.25823 8.90198C1.27726 8.91713 1.2925 8.93649 1.30271 8.95851C1.31292 8.98053 1.31784 9.00461 1.31707 9.02886C1.31637 9.05145 1.31074 9.07363 1.30058 9.09385C1.29043 9.11407 1.27597 9.13185 1.25823 9.14597L0.78758 9.51684L1.48376 10.1317C1.51504 10.1627 1.53268 10.2048 1.53279 10.2488C1.53168 10.2724 1.52485 10.2954 1.5129 10.3157C1.50095 10.3361 1.48422 10.3534 1.46414 10.3659L1.09154 10.6392Z" fill="#763E1A"/>
<path d="M23.8301 11.9469L18.5745 10.4244L20.1629 12.8253L17.7803 17.4221L20.9278 17.3928H25.6048L23.8301 11.9469Z" fill="#F5841F"/>
<path d="M17.7797 17.5392C17.754 17.542 17.728 17.537 17.7053 17.5248C17.6825 17.5126 17.664 17.4938 17.6522 17.4708C17.6383 17.449 17.6309 17.4236 17.6309 17.3977C17.6309 17.3717 17.6383 17.3463 17.6522 17.3245L19.9957 12.8058L18.4562 10.483C18.4372 10.4576 18.4268 10.4268 18.4268 10.3951C18.4268 10.3635 18.4372 10.3326 18.4562 10.3073C18.4749 10.282 18.5008 10.2629 18.5305 10.2524C18.5602 10.242 18.5925 10.2407 18.6229 10.2487L23.8785 11.7712C23.9031 11.7776 23.9258 11.7898 23.9445 11.8068C23.9633 11.8238 23.9777 11.8451 23.9864 11.8688L25.7513 17.3147C25.7634 17.3355 25.7697 17.359 25.7697 17.383C25.7697 17.407 25.7634 17.4306 25.7513 17.4513C25.7382 17.4701 25.7206 17.4853 25.7 17.4956C25.6795 17.5058 25.6566 17.5107 25.6337 17.5099H20.9566H17.8091L17.7797 17.5392ZM18.9269 10.6586L20.2898 12.7179C20.3018 12.7405 20.3081 12.7656 20.3081 12.7911C20.3081 12.8166 20.3018 12.8418 20.2898 12.8643L18.0248 17.2366H20.9174H25.3787L23.702 12.0738L18.9269 10.6586Z" fill="#F5841F"/>
<path d="M7.3575 10.4244L2.07248 11.9469L0.327148 17.3928H5.00424L8.12231 17.4221L5.76905 12.8253L7.3575 10.4244Z" fill="#F5841F"/>
<path d="M8.12193 17.5392H5.00388H0.326776C0.303806 17.54 0.280994 17.5351 0.260436 17.5248C0.239878 17.5146 0.222237 17.4994 0.209118 17.4806C0.199372 17.4592 0.194336 17.4359 0.194336 17.4123C0.194336 17.3888 0.199372 17.3655 0.209118 17.344L1.95445 11.8981C1.96315 11.8744 1.97751 11.8531 1.9963 11.8361C2.01508 11.8191 2.03774 11.8069 2.06231 11.8005L7.34733 10.278C7.3778 10.27 7.41001 10.2713 7.43974 10.2817C7.46948 10.2922 7.49536 10.3113 7.51401 10.3366C7.53053 10.3629 7.5393 10.3934 7.5393 10.4244C7.5393 10.4555 7.53053 10.4859 7.51401 10.5123L5.9746 12.8351L8.28863 17.3538C8.30065 17.3763 8.30693 17.4014 8.30693 17.4269C8.30693 17.4525 8.30065 17.4776 8.28863 17.5002C8.26842 17.5232 8.24148 17.5393 8.21158 17.5463C8.18169 17.5533 8.15033 17.5508 8.12193 17.5392ZM0.542492 17.2074H5.00388H7.867L5.63141 12.8351C5.61939 12.8125 5.61311 12.7874 5.61311 12.7619C5.61311 12.7363 5.61939 12.7112 5.63141 12.6887L6.99434 10.6294L2.17996 12.0152L0.542492 17.2074Z" fill="#F5841F"/>
<path d="M14.5151 13.0692L14.8485 7.29152L16.3781 3.15344H9.56348L11.0833 7.29152L11.4265 13.0692L11.5441 14.8943V19.3934H14.3582V14.8943L14.5151 13.0692Z" fill="#F5841F"/>
<path d="M14.3577 19.5497H11.5142C11.4726 19.5497 11.4327 19.5332 11.4033 19.5039C11.3738 19.4747 11.3573 19.4349 11.3573 19.3935V14.8943L11.2397 13.0791L10.9063 7.32089L9.38646 3.2121C9.37444 3.18956 9.36816 3.16442 9.36816 3.1389C9.36816 3.11337 9.37444 3.08825 9.38646 3.0657C9.39958 3.04692 9.41722 3.03172 9.43778 3.02149C9.45834 3.01126 9.48115 3.00632 9.50412 3.00715H16.4168C16.4413 3.00556 16.4658 3.01008 16.488 3.02031C16.5103 3.03054 16.5296 3.04614 16.5443 3.0657C16.5563 3.08825 16.5626 3.11337 16.5626 3.1389C16.5626 3.16442 16.5563 3.18956 16.5443 3.2121L15.0245 7.32089L14.6911 13.0791L14.5342 14.9041V19.3935C14.5344 19.4158 14.5298 19.4378 14.5207 19.4582C14.5116 19.4785 14.4983 19.4967 14.4816 19.5115C14.4648 19.5263 14.4452 19.5373 14.4238 19.5439C14.4024 19.5505 14.3799 19.5525 14.3577 19.5497ZM11.7005 19.2471H14.2008V14.8943L14.3577 13.0595L14.6911 7.28186L16.1423 3.37802H9.76887L11.22 7.28186L11.5534 13.0595L11.6809 14.8846L11.7005 19.2471Z" fill="#F5841F"/>
</svg>
