<svg width="26" height="26" viewBox="0 0 26 26" fill="none" xmlns="http://www.w3.org/2000/svg">
<path d="M13 26C15.5712 26 18.0846 25.2376 20.2224 23.8091C22.3603 22.3807 24.0265 20.3503 25.0104 17.9749C25.9944 15.5995 26.2518 12.9856 25.7502 10.4638C25.2486 7.94208 24.0105 5.6257 22.1924 3.80762C20.3743 1.98954 18.0579 0.751405 15.5362 0.249797C13.0144 -0.251811 10.4006 0.00563265 8.02512 0.989572C5.64968 1.97351 3.61935 3.63975 2.1909 5.77759C0.762437 7.91543 0 10.4288 0 13C0 16.4478 1.36964 19.7544 3.80761 22.1924C6.24558 24.6304 9.55219 26 13 26Z" fill="#3375BB"/>
<path d="M13.0938 21.7181C12.9231 21.7178 12.7568 21.6638 12.6185 21.5637C11.8289 21.0092 11.0038 20.5071 10.1485 20.0606C6.99602 18.3462 6.07789 17.424 5.93164 7.7187C5.93164 7.50321 6.01724 7.29655 6.16962 7.14418C6.32199 6.9918 6.52865 6.9062 6.74414 6.9062H6.88633C7.83695 6.9062 10.3557 6.93058 12.5738 5.07808C12.7201 4.95541 12.9049 4.88818 13.0959 4.88818C13.2868 4.88818 13.4716 4.95541 13.6179 5.07808C15.8279 6.9062 18.3507 6.9062 19.3054 6.9062H19.4516C19.6671 6.9062 19.8738 6.9918 20.0262 7.14418C20.1785 7.29655 20.2641 7.50321 20.2641 7.7187C20.1138 17.424 19.1998 18.3503 16.0391 20.0606C15.1829 20.5092 14.3565 21.0126 13.5651 21.5678C13.4274 21.6656 13.2627 21.7182 13.0938 21.7181ZM7.55664 8.50683C7.72727 16.904 8.5032 17.3265 10.9082 18.6306C11.6579 19.0185 12.3874 19.4443 13.0938 19.9062C13.7984 19.4435 14.5266 19.0177 15.2754 18.6306C17.6845 17.3225 18.4645 16.904 18.6351 8.50683C16.6551 8.47132 14.7305 7.84769 13.106 6.71526C11.4762 7.85242 9.54369 8.47633 7.55664 8.50683Z" fill="white"/>
</svg>
